<?xml version="1.0" encoding="UTF-8" standalone="no"?>
<!-- Created with Inkscape (http://www.inkscape.org/) -->

<svg
   xmlns:dc="http://purl.org/dc/elements/1.1/"
   xmlns:cc="http://creativecommons.org/ns#"
   xmlns:rdf="http://www.w3.org/1999/02/22-rdf-syntax-ns#"
   xmlns:svg="http://www.w3.org/2000/svg"
   xmlns="http://www.w3.org/2000/svg"
   xmlns:sodipodi="http://sodipodi.sourceforge.net/DTD/sodipodi-0.dtd"
   xmlns:inkscape="http://www.inkscape.org/namespaces/inkscape"
   width="440"
   height="100"
   id="svg2"
   version="1.1"
   inkscape:version="0.48.4 r9939"
   sodipodi:docname="logo.svg">
  <defs
     id="defs4" />
  <sodipodi:namedview
     id="base"
     pagecolor="#ffffff"
     bordercolor="#666666"
     borderopacity="1.0"
     inkscape:pageopacity="0.0"
     inkscape:pageshadow="2"
     inkscape:zoom="5.6568542"
     inkscape:cx="62.890052"
     inkscape:cy="40.78534"
     inkscape:document-units="px"
     inkscape:current-layer="layer1"
     showgrid="false"
     fit-margin-top="0"
     fit-margin-left="0"
     fit-margin-right="0"
     fit-margin-bottom="0"
     inkscape:window-width="1440"
     inkscape:window-height="876"
     inkscape:window-x="0"
     inkscape:window-y="24"
     inkscape:window-maximized="1" />
  <metadata
     id="metadata7">
    <rdf:RDF>
      <cc:Work
         rdf:about="">
        <dc:format>image/svg+xml</dc:format>
        <dc:type
           rdf:resource="http://purl.org/dc/dcmitype/StillImage" />
        <dc:title />
      </cc:Work>
    </rdf:RDF>
  </metadata>
  <g
     inkscape:label="Layer 1"
     inkscape:groupmode="layer"
     id="layer1"
     transform="translate(-41.142849,-311.50505)">
    <path
       id="path3946"
       style="fill:none;stroke:#d72121;stroke-width:2;stroke-linecap:round;stroke-linejoin:round;stroke-miterlimit:4;stroke-opacity:1;stroke-dasharray:none"
       d="m 48.105475,410.08182 c 0,0 30.523906,3.1397 46.311882,-19.11855 0,0 18.475223,7.92817 24.787993,7.35428 0,0 12.88334,-3.16141 17.1875,-15.5 l -24.375,-18.65625 c 1.43472,-5.45193 -5.16458,-12.90612 -9.46875,-16.0625 0,0 6.03152,-20.94001 -0.28125,-28.6875 l -7.468751,14.90625 c 0,-11.19082 -3.4375,-16.0625 -3.4375,-16.0625 l -12.625,22.65625 c -7.385259,3.48573 -17.284708,12.34784 -29.107331,28.05226 -11.996838,15.78633 -1.523793,41.11826 -1.523793,41.11826 z m 0.354472,-39.01952 c 11.622379,-14.08329 23.742868,2.12546 21.571295,9.95905 8.667851,-7.88683 30.677688,-2.12778 21.993226,12.68087"
       inkscape:connector-curvature="0"
       sodipodi:nodetypes="ccccccccccccccc" />
    <g
       style="font-size:64.38926697px;font-style:normal;font-variant:normal;font-weight:normal;font-stretch:normal;text-align:start;line-height:125%;letter-spacing:0px;word-spacing:0px;writing-mode:lr-tb;text-anchor:start;fill:#d72121;fill-opacity:1;stroke:none;font-family:Futura Lt BT;-inkscape-font-specification:Futura Lt BT"
       id="text3775">
      <path
         d="m 164.4693,368.54907 c -1e-5,3.60514 0.80695,6.38234 2.42088,8.33162 1.63488,1.94929 3.96144,2.92393 6.9797,2.92393 2.93439,0 5.23999,-1.05848 6.91681,-3.17545 1.69774,-2.13792 2.54662,-5.07232 2.54665,-8.80322 -3e-5,-3.41647 -0.83843,-6.09935 -2.5152,-8.04866 -1.67683,-1.97022 -3.97195,-2.95534 -6.88538,-2.95537 -2.91346,3e-5 -5.21906,1.04803 -6.91682,3.14401 -1.69777,2.07507 -2.54665,4.93611 -2.54664,8.58314 m 18.80116,13.64499 0,-5.09329 c -0.92227,2.05409 -2.22179,3.62609 -3.89857,4.71601 -1.65586,1.06896 -3.61562,1.60344 -5.87929,1.60344 -4.00338,0 -7.23123,-1.37288 -9.68354,-4.11865 -2.43137,-2.74576 -3.64705,-6.37184 -3.64705,-10.87826 0,-4.46447 1.2052,-8.10104 3.61561,-10.90971 2.41039,-2.82957 5.52296,-4.24438 9.3377,-4.2444 2.36846,2e-5 4.41207,0.52402 6.13081,1.572 1.73966,1.02707 3.0811,2.54667 4.02433,4.55881 l 0,-5.09329 3.86713,0 0,27.88734 -3.86713,0"
         style=""
         id="path3127" />
      <path
         d="m 196.78969,343.42845 c 0,-0.8174 0.29344,-1.50908 0.88032,-2.07504 0.58688,-0.58684 1.28904,-0.88028 2.10649,-0.88032 0.81743,4e-5 1.51959,0.29348 2.10648,0.88032 0.60783,0.56596 0.91175,1.25764 0.91176,2.07504 -1e-5,0.83844 -0.29345,1.5406 -0.88032,2.10649 -0.56593,0.56595 -1.27857,0.84892 -2.13792,0.84888 -0.83841,4e-5 -1.55105,-0.28293 -2.13793,-0.84888 -0.56592,-0.56589 -0.84888,-1.26805 -0.84888,-2.10649 m 0.97464,38.76561 0,-27.88734 3.99289,0 0,27.88734 -3.99289,0"
         style=""
         id="path3129" />
      <path
         d="m 216.21965,359.90305 c 1.42528,-2.41038 2.81912,-4.11862 4.18153,-5.12473 1.38335,-1.00606 2.98679,-1.5091 4.81034,-1.50912 0.54494,2e-5 1.0899,0.0524 1.63488,0.1572 0.5659,0.10482 1.12134,0.25154 1.66632,0.44016 l -1.2576,3.64704 c -0.41922,-0.12573 -0.85938,-0.23053 -1.32048,-0.3144 -0.44018,-0.0838 -0.86986,-0.12573 -1.28905,-0.12576 -2.32658,3e-5 -4.31778,1.08995 -5.97361,3.26977 -1.63489,2.17987 -2.45233,4.89419 -2.45233,8.14298 l 0,13.70787 -3.86712,0 0,-27.88734 3.86712,0 0,5.59633"
         style=""
         id="path3131" />
      <path
         d="m 234.51777,368.54907 c 0,3.60514 0.80696,6.38234 2.42089,8.33162 1.63487,1.94929 3.96143,2.92393 6.97969,2.92393 2.91343,0 5.20855,-1.05848 6.88538,-3.17545 1.67678,-2.13792 2.51518,-5.07232 2.51521,-8.80322 -3e-5,-3.41647 -0.82795,-6.09935 -2.48377,-8.04866 -1.65587,-1.97022 -3.94051,-2.95534 -6.85394,-2.95537 -2.91346,3e-5 -5.21906,1.04803 -6.91681,3.14401 -1.69777,2.07507 -2.54665,4.93611 -2.54665,8.58314 m 18.73829,13.64499 0,-5.09329 c -0.92227,2.07505 -2.21131,3.64705 -3.86713,4.71601 -1.65587,1.06896 -3.60515,1.60344 -5.84786,1.60344 -4.00338,0 -7.23122,-1.37288 -9.68354,-4.11865 -2.43137,-2.74576 -3.64705,-6.37184 -3.64705,-10.87826 0,-4.46447 1.2052,-8.10104 3.61561,-10.90971 2.4104,-2.82957 5.52296,-4.24438 9.3377,-4.2444 2.36847,2e-5 4.40159,0.52402 6.09938,1.572 1.7187,1.02707 3.04966,2.54667 3.99289,4.55881 l 0,-25.93806 3.93,0 0,48.73211 -3.93,0"
         style=""
         id="path3133" />
      <path
         d="m 280.23164,379.80462 c 3.06014,0 5.64871,-1.1004 7.7657,-3.30121 2.13789,-2.22176 3.20686,-4.93608 3.20688,-8.14298 -2e-5,-3.24879 -1.05851,-5.97359 -3.17544,-8.17442 -2.11699,-2.20078 -4.71604,-3.30118 -7.79714,-3.30121 -3.06018,3e-5 -5.64875,1.10043 -7.7657,3.30121 -2.11697,2.20083 -3.17545,4.92563 -3.17545,8.17442 0,3.2069 1.05848,5.92122 3.17545,8.14298 2.11695,2.20081 4.70552,3.30121 7.7657,3.30121 m -0.12576,3.6156 c -1.99122,0 -3.89858,-0.39824 -5.72209,-1.19472 -1.82354,-0.77552 -3.47938,-1.89688 -4.96754,-3.36409 -1.40432,-1.38335 -2.47329,-2.97632 -3.20688,-4.77889 -0.73361,-1.80255 -1.10041,-3.73087 -1.10041,-5.78497 0,-2.03311 0.37728,-3.96143 1.13185,-5.78497 0.75455,-1.82351 1.834,-3.43743 3.23832,-4.84177 1.42528,-1.42526 3.04968,-2.51518 4.87322,-3.26977 1.82351,-0.75454 3.74135,-1.13182 5.75353,-1.13184 2.05406,2e-5 4.00335,0.3773 5.84785,1.13184 1.86542,0.75459 3.52126,1.84451 4.96753,3.26977 1.44622,1.4253 2.54662,3.0497 3.30121,4.87321 0.77549,1.82354 1.16325,3.74138 1.16328,5.75353 -3e-5,2.01218 -0.37731,3.93002 -1.13184,5.75353 -0.75459,1.80257 -1.84451,3.40602 -3.26977,4.81033 -1.46723,1.46721 -3.14403,2.58857 -5.03041,3.36409 -1.86546,0.79648 -3.81475,1.19472 -5.84785,1.19472"
         style=""
         id="path3135" />
      <path
         d="m 327.92622,354.30672 0,23.04557 c -3e-5,3.66801 -0.10483,6.46617 -0.3144,8.3945 -0.18867,1.92832 -0.51355,3.36408 -0.97464,4.30729 -0.96419,2.07503 -2.44187,3.6156 -4.43305,4.62169 -1.99123,1.02703 -4.50643,1.54055 -7.54562,1.54056 -3.70994,-1e-5 -6.60242,-0.72313 -8.67746,-2.16936 -2.05409,-1.4253 -3.30121,-3.59466 -3.74137,-6.5081 l 4.84178,0 c 0.31439,1.71872 1.13183,3.01824 2.45232,3.89857 1.34143,0.88031 3.15447,1.32047 5.43913,1.32049 1.71871,-2e-5 3.25927,-0.30394 4.62169,-0.91177 1.38334,-0.60785 2.42087,-1.44625 3.11257,-2.5152 0.4611,-0.69169 0.78598,-1.49865 0.97464,-2.42089 0.20958,-0.90128 0.31438,-2.30561 0.3144,-4.21297 l 0,-1.47768 0,-4.18153 c -0.85938,1.99121 -2.17986,3.55273 -3.96144,4.68457 -1.76067,1.13184 -3.78331,1.69776 -6.06794,1.69776 -3.91954,0 -7.05306,-1.3624 -9.40058,-4.08721 -2.32657,-2.7248 -3.48985,-6.38232 -3.48985,-10.97258 0,-4.54831 1.19472,-8.19536 3.58417,-10.94115 2.38944,-2.76669 5.5544,-4.15006 9.4949,-4.15008 2.20079,2e-5 4.19199,0.57642 5.97362,1.7292 1.80254,1.13187 3.09158,2.64099 3.86712,4.52737 l 0,-5.21905 3.93001,0 m -13.33059,2.5152 c -2.8925,3e-5 -5.17714,1.03755 -6.85393,3.11257 -1.65585,2.05411 -2.48378,4.88371 -2.48377,8.48882 -10e-6,3.58418 0.786,6.38234 2.35801,8.3945 1.59295,1.99121 3.79375,2.98681 6.60241,2.98681 2.97631,0 5.35527,-1.05848 7.1369,-3.17545 1.80254,-2.11696 2.70382,-4.96752 2.70384,-8.5517 -2e-5,-3.52127 -0.83842,-6.27751 -2.5152,-8.26874 -1.67683,-1.99118 -3.99291,-2.98678 -6.94826,-2.98681"
         style=""
         id="path3137" />
      <path
         d="m 338.23857,382.19406 0,-27.88734 3.67849,0 0,4.30729 c 1.13183,-1.78158 2.51519,-3.11254 4.15009,-3.99289 1.65583,-0.90126 3.55271,-1.3519 5.69065,-1.35192 3.16495,2e-5 5.62775,0.88035 7.38842,2.64096 1.76061,1.76067 2.64093,4.21299 2.64096,7.35698 l 0,18.92692 -3.93001,0 0,-17.19772 c -2e-5,-2.78766 -0.5869,-4.85223 -1.76064,-6.19369 -1.15282,-1.36238 -2.94491,-2.04358 -5.37625,-2.04361 -2.95538,3e-5 -5.13523,0.88035 -6.53954,2.64097 -1.38337,1.7397 -2.07505,4.48547 -2.07504,8.2373 l 0,14.55675 -3.86713,0"
         style=""
         id="path3139" />
      <path
         d="m 373.7344,368.54907 c -10e-6,3.60514 0.80696,6.38234 2.42089,8.33162 1.63487,1.94929 3.96143,2.92393 6.97969,2.92393 2.91343,0 5.20855,-1.05848 6.88538,-3.17545 1.67678,-2.13792 2.51518,-5.07232 2.5152,-8.80322 -2e-5,-3.41647 -0.82794,-6.09935 -2.48376,-8.04866 -1.65587,-1.97022 -3.94051,-2.95534 -6.85394,-2.95537 -2.91346,3e-5 -5.21906,1.04803 -6.91681,3.14401 -1.69777,2.07507 -2.54666,4.93611 -2.54665,8.58314 m 18.73828,13.64499 0,-5.09329 c -0.92226,2.07505 -2.2113,3.64705 -3.86712,4.71601 -1.65587,1.06896 -3.60515,1.60344 -5.84786,1.60344 -4.00338,0 -7.23122,-1.37288 -9.68354,-4.11865 -2.43137,-2.74576 -3.64705,-6.37184 -3.64705,-10.87826 0,-4.46447 1.2052,-8.10104 3.61561,-10.90971 2.4104,-2.82957 5.52296,-4.24438 9.3377,-4.2444 2.36847,2e-5 4.40159,0.52402 6.09937,1.572 1.71871,1.02707 3.04967,2.54667 3.99289,4.55881 l 0,-25.93806 3.93001,0 0,48.73211 -3.93001,0"
         style=""
         id="path3141" />
      <path
         d="m 419.44827,379.80462 c 3.06014,0 5.64871,-1.1004 7.7657,-3.30121 2.13789,-2.22176 3.20685,-4.93608 3.20688,-8.14298 -3e-5,-3.24879 -1.05851,-5.97359 -3.17544,-8.17442 -2.11699,-2.20078 -4.71604,-3.30118 -7.79714,-3.30121 -3.06018,3e-5 -5.64875,1.10043 -7.7657,3.30121 -2.11697,2.20083 -3.17545,4.92563 -3.17545,8.17442 0,3.2069 1.05848,5.92122 3.17545,8.14298 2.11695,2.20081 4.70552,3.30121 7.7657,3.30121 m -0.12576,3.6156 c -1.99122,0 -3.89859,-0.39824 -5.7221,-1.19472 -1.82353,-0.77552 -3.47937,-1.89688 -4.96753,-3.36409 -1.40433,-1.38335 -2.47329,-2.97632 -3.20688,-4.77889 -0.73361,-1.80255 -1.10041,-3.73087 -1.10041,-5.78497 0,-2.03311 0.37728,-3.96143 1.13185,-5.78497 0.75455,-1.82351 1.83399,-3.43743 3.23832,-4.84177 1.42528,-1.42526 3.04968,-2.51518 4.87321,-3.26977 1.82351,-0.75454 3.74136,-1.13182 5.75354,-1.13184 2.05406,2e-5 4.00334,0.3773 5.84785,1.13184 1.86542,0.75459 3.52126,1.84451 4.96753,3.26977 1.44622,1.4253 2.54662,3.0497 3.30121,4.87321 0.77549,1.82354 1.16325,3.74138 1.16328,5.75353 -3e-5,2.01218 -0.37731,3.93002 -1.13184,5.75353 -0.75459,1.80257 -1.84451,3.40602 -3.26977,4.81033 -1.46723,1.46721 -3.14403,2.58857 -5.03041,3.36409 -1.86547,0.79648 -3.81475,1.19472 -5.84785,1.19472"
         style=""
         id="path3143" />
      <path
         d="m 467.14285,354.30672 0,23.04557 c -3e-5,3.66801 -0.10483,6.46617 -0.3144,8.3945 -0.18867,1.92832 -0.51355,3.36408 -0.97464,4.30729 -0.96419,2.07503 -2.44187,3.6156 -4.43305,4.62169 -1.99123,1.02703 -4.50643,1.54055 -7.54562,1.54056 -3.70994,-1e-5 -6.60242,-0.72313 -8.67746,-2.16936 -2.05409,-1.4253 -3.30121,-3.59466 -3.74137,-6.5081 l 4.84177,0 c 0.3144,1.71872 1.13184,3.01824 2.45233,3.89857 1.34143,0.88031 3.15447,1.32047 5.43913,1.32049 1.71871,-2e-5 3.25927,-0.30394 4.62169,-0.91177 1.38334,-0.60785 2.42087,-1.44625 3.11257,-2.5152 0.4611,-0.69169 0.78598,-1.49865 0.97464,-2.42089 0.20958,-0.90128 0.31438,-2.30561 0.3144,-4.21297 l 0,-1.47768 0,-4.18153 c -0.85938,1.99121 -2.17987,3.55273 -3.96145,4.68457 -1.76066,1.13184 -3.7833,1.69776 -6.06793,1.69776 -3.91954,0 -7.05306,-1.3624 -9.40058,-4.08721 -2.32657,-2.7248 -3.48985,-6.38232 -3.48985,-10.97258 0,-4.54831 1.19472,-8.19536 3.58417,-10.94115 2.38944,-2.76669 5.5544,-4.15006 9.4949,-4.15008 2.20079,2e-5 4.19199,0.57642 5.97361,1.7292 1.80255,1.13187 3.09159,2.64099 3.86713,4.52737 l 0,-5.21905 3.93001,0 m -13.33059,2.5152 c -2.8925,3e-5 -5.17714,1.03755 -6.85393,3.11257 -1.65586,2.05411 -2.48378,4.88371 -2.48377,8.48882 -10e-6,3.58418 0.78599,6.38234 2.35801,8.3945 1.59295,1.99121 3.79375,2.98681 6.60241,2.98681 2.97631,0 5.35527,-1.05848 7.1369,-3.17545 1.80254,-2.11696 2.70382,-4.96752 2.70384,-8.5517 -2e-5,-3.52127 -0.83842,-6.27751 -2.5152,-8.26874 -1.67683,-1.99118 -3.99291,-2.98678 -6.94826,-2.98681"
         style=""
         id="path3145" />
    </g>
  </g>
</svg>
